<?xml version="1.0" standalone="no"?>
<!DOCTYPE svg PUBLIC "-//W3C//DTD SVG 20010904//EN"
 "http://www.w3.org/TR/2001/REC-SVG-20010904/DTD/svg10.dtd">
<svg version="1.0" xmlns="http://www.w3.org/2000/svg"
 width="2288.000000pt" height="2288.000000pt" viewBox="0 0 2288.000000 2288.000000"
 preserveAspectRatio="xMidYMid meet">
<metadata>
Created by potrace 1.11, written by Peter Selinger 2001-2013
</metadata>
<g transform="translate(0.000000,2288.000000) scale(0.100000,-0.100000)"
fill="#000000" stroke="none">
<path d="M11300 16229 c-47 -10 -101 -22 -120 -25 -19 -3 -39 -7 -45 -9 -5 -1
-28 -5 -50 -10 -22 -4 -49 -10 -60 -12 -11 -2 -29 -6 -40 -8 -79 -14 -134 -25
-155 -30 -14 -3 -38 -8 -54 -10 -15 -2 -36 -7 -46 -10 -19 -6 -24 -7 -100 -21
-25 -4 -47 -8 -50 -9 -22 -5 -121 -26 -145 -30 -16 -3 -41 -7 -55 -10 -14 -3
-36 -8 -50 -11 -14 -3 -36 -7 -50 -10 -14 -3 -34 -7 -45 -9 -11 -2 -33 -6 -50
-9 -16 -4 -52 -11 -80 -16 -27 -5 -61 -12 -75 -15 -14 -3 -36 -8 -50 -10 -14
-2 -70 -14 -125 -25 -55 -12 -111 -24 -125 -26 -14 -3 -36 -7 -50 -10 -14 -3
-47 -10 -75 -15 -27 -6 -54 -11 -60 -13 -5 -1 -32 -7 -60 -11 -57 -10 -64 -12
-67 -15 -2 -1 -12 -3 -23 -5 -53 -8 -130 -23 -130 -25 0 -1 -13 -3 -30 -5 -16
-2 -41 -7 -55 -11 -14 -3 -36 -8 -50 -10 -14 -3 -59 -12 -100 -20 -41 -9 -85
-18 -97 -20 -13 -2 -35 -7 -50 -10 -16 -3 -48 -10 -73 -14 -25 -5 -56 -12 -70
-15 -14 -2 -52 -10 -85 -16 -76 -14 -90 -17 -90 -19 0 -1 -9 -3 -20 -4 -11 -2
-33 -6 -50 -9 -16 -4 -45 -9 -64 -12 -19 -3 -42 -10 -51 -15 -10 -5 -19 -7
-22 -5 -4 4 -49 -4 -173 -31 -11 -2 -36 -7 -55 -10 -19 -3 -43 -7 -52 -10 -10
-3 -30 -7 -45 -10 -16 -2 -39 -7 -53 -10 -14 -3 -36 -8 -49 -10 -13 -3 -54
-11 -90 -19 -36 -7 -69 -11 -73 -9 -4 3 -8 0 -8 -6 0 -6 -3 -9 -7 -7 -5 3 -37
-2 -73 -9 -36 -8 -76 -16 -90 -18 -14 -2 -61 -12 -105 -21 -112 -23 -116 -24
-155 -31 -19 -4 -44 -9 -55 -11 -33 -8 -252 -51 -342 -69 -13 -2 -35 -6 -50
-9 -16 -3 -39 -8 -53 -11 -24 -4 -213 -44 -235 -49 -20 -4 -110 -18 -115 -17
-3 0 -12 -4 -20 -8 -8 -4 -35 -11 -60 -14 -42 -6 -55 -8 -112 -21 -13 -3 -34
-7 -48 -10 -14 -3 -36 -7 -50 -10 -14 -3 -41 -8 -60 -11 -19 -3 -43 -7 -52
-10 -10 -3 -30 -7 -45 -10 -16 -3 -73 -14 -128 -25 -55 -12 -109 -23 -120 -25
-96 -19 -123 -24 -145 -29 -14 -3 -40 -8 -59 -11 -32 -5 -42 -7 -93 -19 -13
-3 -34 -7 -48 -10 -14 -3 -36 -7 -50 -10 -14 -3 -41 -8 -60 -11 -19 -3 -62
-12 -95 -19 -33 -8 -71 -16 -85 -18 -14 -3 -70 -14 -125 -26 -55 -11 -116 -23
-135 -26 -19 -3 -55 -11 -80 -16 -25 -6 -56 -12 -70 -14 -14 -2 -36 -7 -50
-10 -14 -3 -36 -7 -50 -10 -14 -3 -36 -7 -50 -10 -14 -3 -41 -8 -60 -11 -19
-3 -62 -12 -95 -19 -33 -8 -76 -17 -95 -20 -19 -3 -42 -8 -50 -10 -8 -3 -62
-14 -120 -25 -58 -10 -116 -22 -130 -25 -14 -3 -40 -8 -59 -11 -32 -5 -42 -7
-93 -19 -13 -3 -34 -7 -48 -10 -14 -3 -36 -7 -50 -10 -14 -3 -38 -8 -55 -11
-32 -6 -501 -101 -544 -110 -14 -3 -37 -7 -51 -9 -14 -2 -26 -4 -27 -5 -4 -3
-10 -5 -68 -15 -27 -5 -52 -9 -55 -10 -22 -6 -71 -16 -100 -20 -19 -3 -51 -10
-70 -15 -19 -5 -51 -11 -70 -14 -19 -2 -46 -7 -60 -10 -113 -26 -200 -42 -214
-40 -9 1 -16 -1 -16 -5 0 -4 -8 -7 -18 -8 -16 -1 -38 -6 -88 -17 -12 -2 -38
-7 -58 -10 -19 -3 -57 -11 -83 -17 -27 -6 -59 -13 -73 -15 -14 -3 -56 -11 -95
-19 -38 -8 -81 -16 -95 -19 -14 -2 -46 -9 -71 -15 -25 -6 -63 -13 -85 -15 -21
-3 -54 -10 -72 -15 -18 -5 -35 -10 -37 -10 -3 0 -20 -3 -38 -6 -17 -3 -43 -7
-57 -9 -14 -3 -25 -5 -25 -6 0 -1 -13 -4 -30 -6 -16 -3 -37 -7 -45 -11 -8 -3
-18 -5 -23 -5 -4 1 -28 -3 -55 -9 -26 -6 -58 -13 -72 -15 -14 -2 -45 -9 -70
-14 -25 -5 -58 -12 -75 -15 -16 -3 -39 -7 -50 -9 -129 -28 -169 -36 -173 -31
-3 3 -10 1 -16 -4 -6 -5 -29 -12 -51 -15 -43 -7 -125 -23 -137 -27 -2 0 -16
-3 -33 -5 -16 -3 -37 -7 -45 -10 -8 -4 -28 -8 -45 -10 -16 -2 -39 -5 -50 -8
-11 -2 -40 -9 -65 -14 -25 -6 -61 -13 -80 -16 -19 -3 -69 -12 -110 -21 -41 -9
-88 -19 -103 -21 -15 -3 -54 -17 -86 -32 -72 -33 -125 -98 -141 -175 -7 -36
-9 -623 -8 -1948 l3 -1896 30 -48 c45 -73 90 -103 199 -135 53 -15 99 -28 101
-29 3 -1 6 -1 8 -2 1 0 9 -2 17 -4 39 -9 207 -57 220 -62 8 -3 20 -7 25 -9 6
-1 30 -7 55 -13 51 -13 59 -16 80 -24 13 -5 258 -74 285 -80 6 -2 16 -6 23
-10 6 -5 12 -6 12 -3 0 2 15 0 33 -5 36 -11 40 -12 122 -34 33 -9 67 -19 75
-22 8 -3 20 -7 25 -8 6 -2 60 -17 120 -35 61 -17 115 -32 120 -34 6 -2 24 -6
40 -10 38 -10 165 -46 185 -54 8 -3 23 -7 34 -9 10 -2 82 -22 160 -44 77 -23
146 -42 151 -44 40 -9 72 -18 85 -22 8 -3 20 -7 27 -9 7 -1 34 -9 60 -17 45
-14 91 -27 121 -33 10 -2 127 -37 207 -62 11 -3 24 -5 29 -4 4 2 14 -3 22 -9
8 -6 14 -9 14 -5 0 3 16 0 35 -8 19 -8 35 -13 35 -11 0 2 18 -2 40 -10 22 -8
42 -15 45 -15 3 0 10 -2 17 -4 30 -9 456 -129 488 -137 19 -5 42 -11 50 -14
13 -3 109 -31 270 -76 19 -6 46 -13 60 -16 14 -3 30 -9 35 -13 6 -4 18 -6 28
-5 9 2 17 0 17 -4 0 -4 6 -8 13 -8 12 0 120 -30 147 -40 8 -3 24 -8 35 -10 11
-2 90 -24 175 -48 85 -25 164 -47 175 -49 11 -2 33 -9 48 -15 16 -6 32 -9 37
-6 5 3 14 0 22 -7 7 -7 22 -14 33 -15 11 -1 92 -22 180 -48 88 -25 165 -47
170 -48 6 -2 16 -6 23 -10 6 -5 12 -6 12 -3 0 3 11 1 25 -4 14 -5 36 -12 48
-14 12 -3 132 -37 267 -76 135 -39 256 -73 270 -76 14 -3 45 -12 70 -19 51
-16 340 -98 420 -120 8 -2 36 -10 63 -18 26 -8 47 -13 47 -11 0 3 10 0 21 -7
12 -6 31 -12 43 -14 11 -2 77 -20 146 -40 69 -20 143 -41 165 -46 22 -5 51
-14 65 -19 23 -10 38 -13 99 -26 14 -3 29 -8 35 -12 6 -3 18 -7 26 -9 8 -1 31
-7 50 -12 119 -37 460 -131 474 -131 9 0 16 -4 16 -8 0 -5 6 -9 14 -9 14 0 99
-20 126 -30 8 -4 20 -7 27 -8 17 -4 186 -53 278 -80 44 -14 89 -26 100 -28 11
-2 27 -7 35 -10 8 -4 26 -9 40 -11 14 -3 79 -21 145 -41 66 -19 129 -37 140
-40 11 -2 75 -20 142 -39 67 -20 129 -36 137 -36 9 0 16 -5 16 -11 0 -5 4 -8
9 -4 5 3 31 -2 58 -10 97 -30 110 -34 203 -60 52 -14 118 -32 145 -40 155 -45
199 -57 214 -60 9 -2 104 -29 211 -60 107 -31 203 -58 213 -60 9 -2 21 -6 25
-9 5 -3 19 -7 33 -10 13 -2 74 -18 134 -36 161 -46 288 -82 305 -85 8 -2 15
-4 15 -5 0 -1 7 -3 15 -5 8 -1 38 -10 65 -18 77 -23 238 -69 255 -72 8 -2 16
-4 18 -5 2 -3 7 -4 47 -14 17 -4 53 -14 80 -23 49 -15 65 -19 115 -29 13 -3
30 -10 37 -16 8 -6 16 -8 19 -5 3 3 30 -4 60 -14 30 -11 84 -26 119 -34 36 -9
77 -20 92 -26 16 -6 35 -12 43 -14 8 -2 42 -11 75 -21 33 -10 65 -19 71 -20 5
-1 76 -21 158 -44 159 -45 205 -47 295 -16 24 9 47 13 52 10 5 -3 9 -1 9 4 0
5 6 9 13 10 13 1 49 9 57 13 3 1 10 3 15 4 6 1 30 8 55 15 25 7 50 14 55 16 6
1 73 20 150 43 77 23 151 44 165 47 14 3 45 12 70 19 48 15 119 34 135 36 6 0
16 5 23 11 6 6 12 8 12 5 0 -2 37 6 83 20 79 23 151 43 172 47 6 1 15 4 20 7
6 4 35 12 65 19 30 7 70 19 88 27 17 7 32 11 32 8 0 -2 12 0 28 6 15 6 37 13
48 15 18 3 272 76 367 104 15 5 27 7 27 4 0 -2 14 3 31 11 17 9 33 14 36 12 2
-3 19 1 38 9 18 7 47 16 65 19 18 3 41 10 51 16 11 5 19 7 19 5 0 -3 12 -1 28
5 15 6 37 13 50 15 13 3 42 11 65 18 39 13 82 24 99 26 4 0 24 8 43 16 20 8
40 12 45 9 5 -3 11 -1 14 4 5 7 70 25 78 21 2 -1 21 5 43 13 22 9 76 25 120
37 44 12 118 33 165 46 47 14 108 32 135 40 28 8 59 16 70 18 11 2 31 9 45 14
14 5 27 9 30 9 7 0 112 29 175 49 28 9 57 17 65 19 8 2 58 15 110 31 52 15
101 27 108 27 6 0 12 4 12 9 0 5 4 7 9 4 5 -4 21 -2 35 4 15 5 37 12 49 15 12
2 85 23 162 45 77 23 165 48 195 56 30 8 80 22 110 31 30 9 60 18 65 19 40 10
64 17 175 49 69 20 132 38 140 40 8 2 80 22 160 45 80 23 156 43 169 46 14 3
28 7 33 10 4 3 16 7 25 9 10 2 68 18 128 35 61 18 117 33 125 35 8 2 15 4 15
5 0 1 7 3 15 5 8 2 33 9 55 15 22 6 47 13 55 15 8 2 15 4 15 5 0 1 7 3 15 5 8
1 42 11 75 21 33 10 65 19 70 20 22 4 103 27 146 41 25 8 55 16 65 18 10 2 19
4 19 5 0 1 7 3 15 5 40 10 177 47 190 52 8 3 20 7 26 8 7 2 54 15 105 30 52
15 101 28 109 30 8 2 34 10 58 19 23 8 42 13 42 11 0 -2 19 2 41 11 42 14 83
25 107 26 6 1 12 4 12 8 0 4 6 7 13 7 21 1 80 14 89 19 8 5 158 49 199 59 9 2
49 13 89 25 40 12 80 23 89 25 42 10 138 37 151 42 8 3 20 7 26 8 6 2 93 26
194 55 101 29 191 54 199 55 9 2 17 4 19 5 1 2 5 3 10 4 4 2 27 8 52 16 25 7
50 14 55 16 20 4 122 33 228 64 60 17 116 33 125 35 9 2 105 29 212 60 107 31
206 58 219 61 14 3 28 7 33 10 7 5 25 9 73 18 6 1 15 5 21 9 6 3 38 13 70 21
92 23 343 94 352 100 5 3 19 7 33 9 13 3 42 10 64 16 22 6 45 11 50 12 6 1 21
6 35 11 14 5 35 12 48 14 13 3 42 11 65 18 23 8 103 31 177 51 74 20 141 38
148 40 7 3 16 5 20 6 4 1 31 10 60 20 28 10 52 16 52 14 0 -2 19 2 41 11 23 8
51 16 63 18 12 3 100 28 196 56 96 27 184 52 195 54 11 3 20 5 20 6 0 1 7 3
15 5 8 2 30 8 48 14 17 5 32 7 32 4 0 -3 7 0 15 7 8 7 15 9 15 6 0 -4 8 -2 19
3 10 6 33 13 51 16 18 3 38 9 44 13 6 3 16 7 21 8 6 1 37 9 70 18 33 9 69 19
81 21 12 3 40 11 63 20 23 8 43 14 46 15 3 0 6 0 8 1 1 0 9 2 17 4 15 4 53 15
120 34 94 26 187 52 200 56 8 2 15 4 15 5 0 1 7 3 15 5 176 43 225 66 275 130
16 20 35 55 42 78 19 61 18 3793 0 3852 -28 89 -72 141 -148 173 -39 17 -174
49 -288 68 -14 3 -33 7 -41 9 -16 5 -74 16 -105 20 -11 2 -20 4 -20 5 0 1 -11
3 -25 6 -14 2 -38 7 -55 10 -16 3 -39 7 -50 8 -11 2 -27 6 -35 9 -8 3 -28 8
-45 10 -16 3 -43 8 -60 11 -71 14 -101 20 -115 22 -8 1 -26 5 -40 8 -29 7
-163 34 -200 41 -14 3 -38 8 -55 12 -16 3 -37 7 -45 9 -8 1 -37 7 -65 12 -27
6 -53 8 -57 6 -3 -2 -9 0 -13 5 -3 6 -12 8 -20 4 -8 -3 -15 -1 -15 4 0 5 -10
9 -22 10 -25 0 -68 8 -138 23 -25 5 -56 12 -70 14 -31 6 -318 65 -345 71 -10
3 -37 7 -59 11 -22 3 -43 7 -47 10 -3 2 -22 5 -42 8 -20 2 -44 7 -54 10 -20 6
-59 13 -113 22 -19 3 -42 8 -50 11 -8 3 -28 7 -44 9 -28 4 -39 6 -96 18 -14 3
-47 10 -75 16 -64 12 -88 17 -150 30 -27 6 -66 13 -85 16 -19 3 -48 9 -65 14
-16 5 -45 11 -63 12 -19 1 -36 6 -38 10 -3 5 -10 6 -15 3 -5 -4 -15 -3 -21 2
-7 4 -24 8 -38 9 -14 1 -26 3 -27 4 -4 3 -9 4 -68 15 -27 5 -52 9 -55 10 -7 1
-70 14 -100 20 -14 3 -47 9 -75 15 -55 11 -87 18 -125 25 -60 12 -90 18 -150
31 -14 3 -38 7 -55 9 -16 2 -30 4 -30 5 0 2 -35 10 -65 15 -30 5 -65 13 -65
15 0 1 -13 3 -30 6 -16 2 -86 15 -155 29 -69 14 -136 28 -150 30 -14 3 -36 8
-50 11 -14 3 -36 8 -50 10 -30 5 -115 22 -150 30 -14 3 -38 7 -55 9 -16 2 -30
4 -30 5 0 1 -9 3 -19 5 -11 2 -31 7 -45 11 -14 4 -37 8 -51 9 -14 1 -25 3 -25
4 0 2 -11 4 -25 7 -14 2 -48 9 -76 14 -28 6 -61 13 -75 15 -23 4 -94 19 -149
31 -14 3 -70 14 -125 25 -55 10 -111 22 -125 24 -14 3 -36 8 -50 10 -14 2 -36
7 -50 11 -14 3 -38 8 -55 10 -16 2 -50 8 -75 14 -25 6 -56 13 -70 15 -14 2
-45 8 -70 14 -25 5 -58 12 -75 15 -16 3 -43 8 -60 11 -16 4 -59 13 -95 21 -35
8 -80 17 -100 19 -19 3 -50 9 -67 14 -18 5 -33 7 -33 4 0 -3 -6 0 -13 6 -8 6
-16 9 -18 6 -3 -2 -36 3 -74 11 -39 8 -79 17 -90 19 -11 2 -33 6 -50 10 -85
17 -183 36 -205 40 -14 3 -47 9 -75 15 -27 6 -60 12 -73 15 -13 2 -31 6 -40 9
-9 3 -34 7 -54 10 -21 3 -59 11 -85 17 -45 10 -57 13 -110 23 -11 3 -43 8 -70
12 -26 3 -52 10 -58 13 -5 4 -17 7 -25 6 -8 0 -31 3 -50 7 -57 14 -122 27
-165 34 -16 2 -50 9 -75 15 -57 12 -78 16 -165 34 -83 16 -113 22 -141 29 -12
2 -37 7 -55 10 -19 3 -45 8 -59 11 -14 3 -36 7 -50 10 -14 3 -36 7 -50 10 -14
3 -38 8 -55 10 -16 3 -37 8 -45 10 -8 2 -28 7 -45 10 -16 2 -41 7 -55 10 -14
3 -36 8 -50 11 -14 2 -36 7 -50 9 -14 3 -36 8 -50 10 -14 3 -36 7 -50 10 -14
3 -50 11 -80 16 -77 16 -85 17 -85 19 0 1 -9 3 -20 5 -54 8 -92 15 -115 20
-14 3 -36 7 -50 10 -14 3 -36 7 -50 10 -14 3 -38 8 -55 10 -16 3 -37 8 -45 10
-16 5 -73 16 -105 20 -11 2 -20 4 -20 5 0 1 -9 3 -20 5 -11 2 -36 7 -55 11
-19 4 -42 8 -50 10 -8 1 -51 10 -95 19 -44 9 -89 18 -100 20 -11 2 -33 6 -50
10 -16 4 -41 8 -55 10 -14 2 -25 4 -25 5 0 2 -29 8 -65 14 -28 5 -26 5 -235
47 -82 17 -161 32 -175 34 -14 3 -43 9 -65 14 -22 5 -56 12 -75 15 -19 3 -46
8 -60 12 -45 10 -75 15 -92 15 -10 0 -18 3 -18 7 0 4 -10 7 -22 8 -13 0 -38 4
-55 7 -18 4 -48 9 -65 12 -18 3 -43 8 -55 10 -13 3 -25 6 -28 6 -2 0 -33 7
-67 15 -34 8 -78 17 -98 20 -19 3 -55 10 -80 16 -25 6 -56 12 -70 14 -27 4
-41 7 -80 17 -26 7 -68 14 -130 23 -19 3 -42 8 -50 11 -8 3 -26 7 -39 9 -13 2
-47 8 -75 14 -28 6 -62 13 -76 15 -14 2 -56 11 -93 19 -86 20 -139 19 -247 -5z
m230 -513 c46 -10 135 -29 155 -32 11 -2 31 -5 45 -9 14 -3 37 -7 51 -10 77
-14 329 -66 341 -69 7 -3 27 -7 43 -10 39 -6 133 -24 165 -30 14 -3 48 -10 75
-16 28 -5 61 -12 75 -15 60 -12 95 -19 257 -51 95 -19 178 -36 185 -39 7 -2
27 -6 43 -9 39 -6 133 -24 165 -30 111 -24 137 -29 155 -32 11 -2 31 -5 45 -8
14 -3 81 -17 150 -31 69 -13 181 -36 250 -50 69 -14 137 -28 152 -30 15 -2 36
-6 47 -10 24 -7 81 -17 104 -16 9 0 17 -3 17 -7 0 -4 10 -8 23 -8 27 -2 67 -9
127 -23 25 -5 61 -13 80 -16 19 -3 54 -10 78 -16 23 -5 59 -12 80 -15 20 -3
43 -7 51 -10 17 -5 153 -34 189 -39 15 -2 38 -6 52 -9 90 -20 138 -29 155 -32
11 -2 67 -12 125 -24 58 -12 116 -24 130 -26 14 -3 31 -7 38 -9 7 -2 34 -7 60
-11 26 -3 50 -8 53 -10 6 -4 147 -33 187 -39 15 -2 38 -7 52 -10 30 -6 208
-42 295 -59 35 -7 93 -17 100 -17 2 0 19 -5 37 -10 18 -5 53 -12 78 -15 25 -3
48 -8 51 -10 6 -4 147 -33 187 -39 15 -2 38 -6 52 -9 93 -20 138 -29 155 -32
11 -1 53 -9 92 -18 40 -9 87 -18 105 -21 18 -3 41 -8 51 -11 11 -3 29 -7 40
-9 25 -4 170 -32 202 -40 18 -4 79 -15 105 -19 14 -3 25 -5 25 -6 0 -2 22 -6
70 -14 22 -4 48 -9 58 -12 11 -3 29 -7 40 -9 12 -2 45 -8 72 -13 70 -14 104
-21 145 -29 52 -9 58 -11 109 -22 25 -5 60 -12 76 -16 17 -3 44 -8 60 -12 17
-4 40 -7 53 -7 12 -1 22 -4 22 -8 0 -3 11 -5 25 -3 14 1 25 -1 25 -5 0 -5 8
-7 18 -5 9 1 22 0 27 -4 6 -3 17 -6 25 -8 8 -1 31 -5 50 -9 19 -3 44 -8 55
-10 11 -1 31 -6 45 -9 14 -3 36 -8 50 -11 14 -3 93 -18 175 -35 83 -16 160
-31 173 -34 13 -2 31 -6 40 -9 20 -6 64 -15 107 -21 17 -3 42 -7 57 -9 14 -2
35 -7 46 -10 11 -4 36 -9 57 -11 20 -3 42 -8 47 -11 5 -3 22 -7 36 -9 15 -1
108 -19 207 -39 99 -21 189 -39 200 -41 27 -5 68 -13 135 -27 30 -6 64 -12 75
-14 11 -1 20 -3 20 -4 0 -2 9 -4 20 -5 11 -1 47 -8 80 -15 33 -7 69 -14 80
-16 20 -3 206 -41 236 -48 9 -3 32 -7 50 -10 19 -3 66 -13 104 -21 39 -9 86
-18 105 -21 19 -3 51 -9 70 -13 19 -5 42 -9 50 -10 8 0 44 -8 80 -16 36 -9 76
-17 90 -19 14 -2 37 -7 53 -10 48 -11 81 -17 112 -22 17 -2 46 -8 65 -13 19
-5 60 -14 90 -20 30 -6 69 -13 85 -17 17 -4 42 -7 56 -9 14 -1 31 -5 38 -9 7
-5 15 -5 18 -2 3 3 13 1 23 -4 9 -5 32 -11 51 -14 19 -2 48 -8 64 -11 17 -4
37 -8 45 -10 8 -2 37 -7 63 -11 27 -4 45 -10 40 -14 -4 -4 -51 -15 -103 -24
-52 -10 -138 -26 -190 -37 -52 -11 -111 -22 -130 -25 -19 -3 -42 -7 -50 -9 -8
-2 -31 -7 -50 -10 -19 -3 -51 -10 -70 -15 -19 -5 -52 -11 -72 -14 -21 -3 -59
-11 -85 -17 -27 -6 -60 -12 -74 -14 -24 -3 -220 -41 -264 -51 -11 -2 -35 -7
-54 -10 -18 -3 -43 -8 -55 -11 -11 -2 -32 -6 -46 -8 -14 -2 -35 -6 -46 -8 -12
-3 -39 -8 -60 -12 -45 -8 -69 -13 -69 -15 0 -1 -14 -3 -30 -5 -17 -3 -64 -12
-105 -20 -41 -9 -84 -18 -95 -20 -42 -6 -109 -19 -165 -31 -37 -8 -92 -16
-115 -18 -11 0 -22 -4 -25 -7 -3 -4 -27 -10 -55 -13 -27 -4 -70 -12 -95 -18
-25 -5 -60 -12 -78 -13 -18 -2 -37 -7 -42 -10 -5 -3 -26 -8 -47 -10 -21 -2
-49 -7 -63 -10 -14 -3 -47 -10 -75 -15 -27 -6 -61 -13 -75 -15 -14 -3 -36 -7
-50 -10 -14 -2 -59 -10 -100 -19 -41 -8 -86 -17 -100 -20 -14 -3 -35 -7 -46
-10 -12 -2 -37 -7 -55 -10 -55 -9 -98 -18 -174 -33 -16 -4 -40 -7 -52 -7 -13
-1 -23 -3 -23 -6 0 -3 -16 -7 -37 -8 -20 -2 -40 -5 -45 -8 -4 -3 -18 -7 -31
-9 -50 -8 -84 -14 -112 -20 -50 -9 -328 -64 -360 -70 -70 -15 -81 -16 -110
-19 -16 -2 -32 -5 -35 -6 -3 -2 -9 -4 -15 -5 -5 -2 -12 -4 -15 -5 -3 -1 -16
-3 -30 -5 -14 -2 -38 -6 -55 -10 -61 -12 -191 -37 -210 -40 -11 -2 -66 -13
-123 -25 -57 -12 -116 -23 -130 -25 -15 -2 -27 -4 -27 -5 0 -1 -13 -4 -30 -6
-16 -2 -48 -8 -70 -14 -47 -11 -112 -22 -140 -25 -11 -1 -29 -5 -40 -8 -11 -3
-36 -9 -55 -12 -19 -3 -42 -8 -50 -10 -8 -2 -31 -7 -50 -10 -31 -5 -314 -60
-365 -71 -11 -2 -35 -7 -54 -10 -36 -6 -35 -6 -156 -30 -44 -9 -89 -17 -100
-19 -11 -1 -20 -3 -20 -5 0 -1 -9 -3 -20 -5 -27 -4 -60 -10 -270 -50 -99 -20
-191 -37 -205 -40 -14 -3 -36 -7 -50 -10 -71 -14 -87 -17 -111 -20 -14 -3 -48
-9 -75 -15 -27 -6 -64 -13 -81 -16 -18 -2 -52 -9 -75 -14 -24 -6 -61 -13 -83
-16 -21 -3 -44 -8 -49 -12 -6 -3 -19 -6 -30 -7 -37 -3 -110 -16 -151 -27 -22
-5 -54 -12 -72 -14 -18 -2 -65 -11 -105 -20 -91 -19 -116 -24 -148 -27 -14 -2
-34 -6 -45 -10 -11 -3 -36 -9 -55 -12 -38 -6 -120 -21 -160 -30 -39 -8 -72
-15 -109 -21 -18 -3 -43 -8 -55 -10 -11 -3 -34 -7 -51 -10 -16 -3 -64 -12
-105 -20 -41 -9 -85 -18 -97 -20 -13 -2 -34 -6 -48 -9 -14 -3 -37 -7 -52 -10
-16 -3 -37 -7 -49 -10 -12 -3 -39 -7 -60 -10 -21 -4 -47 -8 -56 -11 -16 -5
-33 -8 -88 -19 -14 -3 -45 -8 -70 -11 -25 -3 -48 -8 -51 -10 -4 -2 -24 -6 -45
-9 -22 -4 -47 -8 -56 -11 -10 -3 -30 -7 -45 -10 -16 -2 -39 -7 -53 -10 -14 -3
-36 -8 -50 -10 -14 -3 -59 -11 -100 -19 -99 -20 -112 -22 -151 -29 -35 -6 -65
-12 -109 -21 -14 -3 -36 -7 -50 -10 -14 -3 -47 -9 -75 -15 -27 -5 -66 -12 -85
-15 -19 -3 -42 -8 -50 -10 -8 -2 -28 -6 -44 -9 -16 -3 -52 -10 -80 -16 -83
-17 -99 -20 -135 -26 -18 -3 -42 -8 -52 -10 -52 -11 -60 -13 -166 -31 -27 -4
-40 -7 -165 -32 -54 -11 -110 -18 -125 -15 -15 3 -73 14 -128 25 -55 11 -109
22 -120 24 -11 2 -30 6 -41 8 -12 3 -39 8 -60 11 -22 4 -46 8 -54 11 -8 2 -33
7 -55 10 -44 7 -70 13 -70 15 0 1 -11 3 -25 5 -25 3 -109 19 -160 30 -31 6
-126 25 -160 31 -14 2 -36 7 -50 10 -14 3 -36 7 -50 9 -14 2 -45 8 -70 14 -25
5 -65 13 -90 16 -24 4 -48 9 -51 11 -4 2 -26 6 -49 9 -24 3 -46 8 -50 10 -4 2
-26 7 -50 10 -23 3 -45 7 -49 9 -3 2 -24 7 -46 10 -22 3 -53 9 -70 13 -16 4
-34 7 -40 8 -5 0 -26 4 -45 8 -19 4 -48 10 -65 13 -16 3 -39 7 -50 9 -11 3
-31 6 -45 9 -14 2 -50 9 -80 15 -30 6 -68 14 -85 17 -16 2 -37 7 -45 9 -8 2
-31 7 -50 10 -19 3 -48 8 -65 12 -16 3 -40 7 -52 9 -11 1 -29 5 -40 8 -10 3
-31 8 -48 10 -16 3 -55 10 -85 16 -30 6 -64 13 -75 14 -11 2 -29 6 -40 9 -11
3 -36 8 -55 11 -19 3 -60 10 -90 16 -30 6 -66 13 -80 16 -73 13 -137 27 -150
32 -8 3 -18 5 -21 4 -6 -1 -99 16 -234 43 -16 3 -64 12 -105 20 -41 8 -87 17
-102 20 -16 3 -38 7 -50 9 -13 3 -48 10 -78 16 -30 6 -64 13 -75 14 -11 2 -45
8 -75 14 -30 6 -66 14 -80 16 -14 3 -36 8 -50 11 -14 3 -40 7 -59 10 -18 2
-41 7 -51 10 -10 3 -31 8 -46 10 -16 2 -99 18 -184 35 -193 38 -210 41 -237
43 -13 0 -23 5 -23 11 0 5 -2 7 -5 4 -3 -3 -27 -1 -53 4 -26 5 -63 11 -82 14
-48 8 -65 12 -65 15 0 1 -13 3 -30 4 -16 2 -31 4 -32 5 -4 4 -14 6 -70 14 -29
4 -53 12 -53 18 0 5 -5 6 -10 3 -6 -4 -34 -1 -63 5 -30 6 -67 13 -83 15 -16 3
-49 10 -74 15 -25 5 -56 12 -70 14 -14 3 -36 8 -50 11 -14 4 -32 7 -40 7 -8 0
-31 4 -50 9 -19 4 -50 9 -67 11 -18 1 -33 5 -33 9 0 3 -10 5 -22 5 -13 -1 -27
0 -33 3 -5 3 -14 6 -20 7 -5 1 -28 5 -50 8 -22 4 -56 11 -75 16 -19 5 -51 11
-70 14 -19 2 -69 11 -110 20 -106 21 -130 25 -170 32 -19 3 -44 8 -55 12 -11
3 -27 6 -35 7 -8 0 -19 3 -25 6 -5 3 -22 5 -37 4 -16 0 -28 2 -28 5 0 3 -14 7
-31 8 -18 1 -37 6 -43 9 -6 4 -21 6 -33 4 -13 -1 -23 1 -23 6 0 4 -15 8 -32 7
-18 0 -43 3 -56 8 -12 4 -48 12 -80 17 -31 6 -68 13 -82 16 -14 3 -36 7 -49
10 -14 2 -47 9 -75 14 -28 6 -62 13 -76 15 -14 3 -50 10 -80 16 -30 6 -71 13
-90 16 -19 2 -44 8 -55 11 -11 4 -29 8 -40 9 -11 1 -33 5 -50 9 -36 7 -209 40
-285 55 -30 5 -77 15 -105 21 -27 5 -75 15 -105 20 -30 6 -68 13 -85 16 -16 4
-40 7 -52 7 -13 1 -23 3 -23 6 0 3 -12 7 -27 8 -29 3 -68 9 -68 12 0 1 -11 3
-25 5 -44 8 -144 26 -170 32 -14 3 -34 8 -45 10 -39 7 -120 22 -145 28 -38 8
-182 36 -205 40 -11 2 -38 6 -60 10 -22 3 -49 9 -60 13 -11 3 -28 7 -37 8 -10
1 -19 2 -20 4 -2 1 -12 3 -23 4 -11 2 -47 8 -80 15 -33 6 -71 13 -85 16 -32 5
-69 13 -100 19 -14 3 -50 10 -80 16 -30 6 -66 12 -80 15 -14 3 -59 12 -100 20
-110 21 -123 23 -150 30 -14 3 -38 7 -55 10 -16 2 -40 6 -53 10 -38 9 -55 12
-102 20 -25 4 -54 9 -65 12 -57 12 -112 22 -160 29 -22 4 -42 9 -45 13 -3 3
-16 6 -30 5 -14 0 -38 4 -55 8 -16 5 -46 11 -65 14 -19 3 -42 7 -50 9 -8 3
-33 7 -55 11 -47 7 -82 23 -50 23 20 -1 60 6 105 18 40 10 43 11 85 17 23 4
52 9 65 12 14 3 36 7 50 9 14 2 26 4 28 5 3 3 10 5 62 14 52 10 52 10 147 30
40 9 87 18 105 21 18 4 53 11 78 17 25 6 59 12 75 13 17 2 31 4 33 5 3 4 84
20 122 25 8 1 22 5 30 8 8 4 31 8 50 11 19 2 35 5 35 6 0 1 11 4 25 5 31 5 67
12 100 19 14 4 34 8 45 10 91 17 316 63 380 77 52 11 107 20 138 22 9 1 17 4
17 7 0 3 16 7 37 8 20 2 41 6 46 9 6 3 22 8 36 9 27 3 66 11 66 14 0 1 14 3
30 5 17 3 53 9 80 15 28 6 61 13 75 15 22 4 59 11 150 31 14 3 39 7 55 9 17 3
50 10 75 16 25 6 56 12 70 14 14 1 36 5 49 10 12 4 33 8 44 10 12 1 49 8 82
15 33 7 67 14 75 15 8 2 15 4 15 5 0 1 14 3 30 5 17 3 53 9 80 15 28 6 61 13
75 15 14 2 48 9 75 15 28 6 64 13 80 17 17 3 40 7 53 7 12 1 22 5 22 10 0 5 2
7 5 4 4 -3 25 -1 48 4 39 9 71 15 122 21 11 1 25 5 30 9 6 3 33 9 60 13 28 5
55 9 60 10 36 8 205 42 242 49 22 4 150 31 203 41 98 21 127 27 145 30 20 3
31 6 131 26 28 5 64 12 80 15 16 3 70 14 119 24 50 11 106 22 125 25 19 3 55
11 80 16 25 6 56 13 70 15 14 2 45 9 70 14 25 6 59 12 75 14 17 2 37 6 45 9
13 5 31 9 105 21 11 2 67 13 125 24 58 12 116 23 130 26 14 2 32 7 40 10 8 3
32 7 52 10 21 3 59 11 85 17 27 6 55 12 63 14 8 1 33 6 55 10 22 5 48 9 58 10
9 2 18 3 20 5 1 1 11 3 22 5 11 2 36 7 55 10 19 4 46 9 60 12 14 2 99 20 190
38 91 19 181 37 200 40 19 3 55 11 80 16 25 6 55 13 68 15 12 2 34 6 50 9 24
5 46 9 102 19 8 2 26 6 40 9 34 9 77 17 125 23 22 3 42 10 43 15 2 5 7 7 12 4
7 -5 27 -1 150 25 30 6 66 13 80 16 14 2 45 9 70 14 25 5 56 12 70 14 14 2 36
7 50 10 14 3 37 8 53 11 15 3 39 7 55 10 15 3 38 8 52 11 14 3 42 8 64 10 21
2 43 7 49 11 7 4 18 8 27 8 8 1 31 5 50 8 19 4 46 9 60 12 14 3 48 9 75 15 28
6 60 12 73 15 13 2 31 6 40 9 9 3 34 7 54 10 21 3 59 11 85 17 61 14 73 16
114 23 19 3 48 9 64 12 17 4 37 8 45 9 8 1 26 5 40 8 23 6 49 11 110 22 37 7
65 13 65 15 0 1 9 3 20 5 52 8 106 18 165 31 36 7 77 16 93 19 15 3 39 7 55
10 15 3 37 8 50 10 12 2 30 6 40 9 9 3 33 7 52 10 19 3 49 9 65 12 17 4 37 8
45 9 8 1 26 5 40 8 14 4 36 9 50 11 14 2 81 15 150 30 69 14 136 27 150 30 14
2 61 12 105 21 44 9 89 18 100 19 11 2 31 6 45 10 14 3 37 8 53 11 33 6 86 17
152 30 11 2 38 7 60 11 22 3 42 8 45 11 5 5 90 -2 130 -11z m-10957 -2283 c25
-3 192 -36 298 -58 9 -2 32 -6 50 -9 59 -10 93 -17 129 -25 19 -5 43 -9 53
-10 38 -2 47 -5 47 -13 0 -5 4 -7 9 -3 5 3 29 1 53 -4 42 -10 93 -19 133 -26
11 -2 45 -8 75 -14 30 -6 66 -13 80 -16 14 -2 45 -9 70 -14 41 -8 113 -23 180
-35 14 -3 36 -7 50 -11 14 -3 39 -7 55 -9 17 -2 41 -7 55 -10 14 -3 36 -8 50
-10 29 -5 225 -44 255 -50 11 -3 34 -7 50 -10 17 -3 39 -7 50 -9 11 -2 36 -7
55 -11 19 -3 46 -9 60 -12 14 -3 39 -7 55 -10 17 -2 50 -9 75 -14 25 -6 61
-13 80 -16 19 -3 64 -12 100 -20 36 -8 72 -15 80 -16 8 0 44 -7 80 -15 36 -7
79 -15 95 -18 17 -2 41 -6 55 -9 29 -7 113 -24 150 -31 31 -6 42 -9 155 -30
50 -9 101 -19 115 -22 14 -2 36 -6 50 -8 14 -2 25 -4 25 -5 0 -2 38 -10 70
-15 17 -2 41 -7 55 -10 14 -3 36 -7 50 -10 14 -3 36 -7 50 -10 14 -3 36 -8 50
-10 14 -2 81 -15 150 -28 69 -14 141 -28 160 -31 19 -3 46 -9 60 -12 14 -3 34
-7 45 -8 11 -2 20 -4 20 -6 0 -1 11 -3 25 -5 28 -3 17 -1 286 -54 109 -21 215
-42 234 -45 19 -3 66 -12 104 -21 37 -9 71 -14 73 -11 3 3 13 1 22 -3 9 -5 32
-12 51 -15 58 -10 110 -19 190 -36 30 -6 64 -13 75 -14 11 -2 34 -6 50 -9 17
-4 44 -9 60 -12 43 -7 74 -13 93 -19 9 -3 33 -7 52 -10 31 -5 85 -15 160 -31
111 -23 136 -28 154 -30 12 -2 32 -6 46 -9 14 -2 41 -8 60 -11 19 -3 45 -8 58
-11 12 -2 32 -6 45 -7 12 -2 31 -7 42 -10 11 -4 36 -9 55 -11 19 -3 60 -10 90
-16 30 -6 66 -13 80 -16 14 -2 36 -7 50 -10 14 -3 36 -8 50 -10 14 -2 36 -7
50 -10 14 -3 38 -8 54 -10 15 -2 36 -6 46 -9 10 -3 33 -8 51 -10 39 -6 74 -13
74 -15 0 -4 129 -24 143 -21 6 1 12 -2 12 -7 0 -5 10 -8 23 -7 12 1 27 0 32
-4 6 -3 21 -7 35 -9 29 -3 251 -46 355 -67 39 -8 82 -17 98 -20 15 -3 38 -7
52 -10 57 -11 83 -16 135 -25 60 -11 61 -11 172 -34 42 -9 94 -18 115 -22 21
-3 54 -9 73 -14 19 -5 51 -11 70 -14 19 -3 58 -10 85 -16 28 -5 95 -19 150
-29 55 -11 109 -22 120 -24 11 -3 54 -10 95 -17 41 -7 82 -15 90 -18 8 -3 24
-6 35 -7 17 -2 59 -10 155 -31 60 -13 192 -37 215 -39 11 -1 27 -5 35 -8 8 -3
47 -11 85 -18 39 -6 79 -14 90 -16 31 -7 57 -12 94 -17 18 -3 41 -8 51 -11 10
-3 31 -7 46 -9 16 -2 40 -7 54 -10 14 -3 36 -8 50 -10 14 -2 36 -7 50 -10 14
-3 36 -8 50 -10 39 -7 232 -45 260 -51 14 -3 50 -9 80 -15 30 -6 66 -13 80
-16 36 -7 61 -12 95 -17 17 -3 64 -12 105 -20 117 -24 154 -31 165 -32 6 -1
28 -5 50 -10 22 -5 45 -10 50 -10 6 -1 35 -6 65 -13 30 -6 114 -22 185 -36
149 -29 172 -33 200 -39 11 -3 40 -8 65 -12 25 -4 54 -9 65 -12 11 -2 31 -6
45 -8 14 -2 37 -8 50 -13 l25 -9 0 -2033 c0 -1117 -3 -2034 -8 -2037 -4 -2 -3
-12 2 -21 13 -25 6 -68 -10 -64 -8 2 -99 29 -204 59 -104 30 -197 56 -205 57
-8 1 -40 10 -70 19 -115 35 -336 98 -362 102 -15 3 -40 10 -55 17 -15 6 -37
13 -48 15 -11 2 -38 9 -60 15 -22 6 -42 12 -45 13 -9 2 -238 68 -300 86 -19 6
-42 12 -50 13 -8 2 -22 6 -30 9 -24 9 -74 20 -82 19 -5 -1 -8 2 -8 7 0 5 -7 8
-17 7 -9 -2 -34 4 -57 12 -23 8 -52 16 -66 19 -13 2 -30 9 -37 15 -7 6 -13 8
-13 5 0 -3 -15 -1 -32 4 -18 6 -41 12 -50 15 -10 2 -26 6 -35 8 -45 12 -170
48 -183 53 -8 3 -19 7 -25 9 -5 1 -30 7 -55 13 -62 16 -64 16 -160 46 -47 14
-94 27 -105 30 -11 2 -57 15 -103 29 -45 13 -84 24 -85 24 -1 0 -9 3 -17 6 -8
3 -51 14 -95 26 -44 11 -109 30 -145 40 -36 11 -128 37 -205 59 -77 22 -155
44 -172 50 -18 5 -33 8 -33 5 0 -2 -13 2 -30 11 -17 9 -30 13 -30 11 0 -3 -15
0 -32 6 -18 5 -62 18 -98 28 -36 10 -105 30 -155 44 -49 15 -100 28 -112 30
-13 3 -27 7 -33 11 -5 3 -19 8 -30 11 -11 2 -28 6 -37 9 -10 2 -38 9 -62 15
-24 6 -49 14 -55 18 -6 3 -19 8 -29 9 -10 2 -73 19 -140 39 -67 19 -133 37
-146 40 -14 3 -28 7 -33 10 -4 3 -18 7 -30 10 -39 9 -53 12 -53 14 0 2 -12 5
-50 13 -11 2 -27 6 -35 9 -8 3 -33 11 -55 17 -22 6 -89 25 -148 42 -59 17
-113 32 -120 33 -7 1 -17 5 -23 8 -6 4 -25 10 -42 13 -17 3 -41 9 -54 14 -13
5 -27 9 -33 10 -5 1 -28 7 -50 13 -22 7 -44 13 -50 13 -5 1 -43 12 -84 24 -41
13 -81 24 -90 26 -9 2 -41 11 -71 20 -30 9 -62 17 -70 20 -8 2 -27 8 -42 14
-16 6 -28 8 -28 6 0 -3 -15 1 -32 8 -18 8 -37 15 -43 16 -37 7 -62 13 -75 18
-17 7 -23 8 -60 17 -22 5 -234 66 -328 95 -18 5 -36 10 -40 11 -4 0 -25 5 -47
11 -22 6 -42 11 -45 11 -3 0 -16 5 -30 10 -14 5 -32 11 -40 13 -8 2 -72 19
-141 39 -69 20 -135 38 -147 41 -11 2 -30 9 -41 15 -12 6 -21 8 -21 4 0 -3 -6
-1 -13 5 -8 6 -16 9 -19 6 -3 -3 -25 2 -49 11 -24 8 -55 18 -69 20 -14 3 -52
13 -86 24 -33 10 -78 23 -100 29 -21 5 -95 26 -164 46 -69 20 -130 37 -137 39
-7 1 -15 5 -19 8 -3 4 -12 4 -20 1 -8 -3 -14 1 -14 8 0 7 -3 10 -6 7 -5 -6
-91 17 -334 87 -73 21 -75 22 -145 40 -33 9 -67 19 -75 22 -19 7 -29 10 -58
17 -13 3 -126 34 -250 70 -195 55 -284 80 -327 92 -5 2 -73 21 -150 44 -77 22
-147 42 -155 44 -8 2 -58 16 -110 30 -52 15 -102 29 -110 31 -26 6 -384 107
-400 113 -8 3 -20 6 -26 7 -6 2 -38 11 -70 20 -33 9 -66 19 -74 21 -17 4 -100
28 -148 43 -18 5 -36 11 -40 12 -20 5 -31 8 -82 23 -31 9 -69 19 -85 22 -16 3
-32 7 -37 10 -4 3 -16 7 -25 9 -10 2 -43 11 -73 20 -30 9 -62 17 -70 19 -8 2
-96 27 -195 56 -99 29 -187 54 -195 55 -8 2 -15 4 -15 5 0 1 -9 3 -20 5 -11 2
-44 11 -72 20 -29 9 -58 18 -65 19 -7 2 -34 9 -60 16 l-47 12 0 1601 c0 880 2
1604 5 1609 3 5 10 6 15 2 6 -3 25 -8 42 -11z m21795 -1597 l0 -1604 -21 -5
c-12 -3 -56 -15 -97 -27 -41 -12 -83 -22 -92 -23 -10 -1 -18 -6 -18 -11 0 -5
-3 -7 -6 -4 -3 4 -20 2 -37 -4 -18 -5 -39 -11 -47 -13 -8 -2 -15 -4 -15 -5 0
-1 -7 -3 -15 -5 -8 -1 -80 -22 -160 -45 -80 -23 -156 -44 -169 -47 -13 -2 -32
-8 -42 -14 -10 -5 -22 -8 -26 -8 -4 1 -15 0 -23 -3 -8 -3 -35 -11 -60 -18 -25
-7 -56 -16 -70 -21 -14 -5 -68 -20 -120 -35 -52 -14 -120 -32 -150 -41 -30 -8
-59 -16 -65 -17 -5 -1 -15 -5 -21 -8 -6 -4 -25 -10 -42 -13 -17 -3 -42 -9 -56
-15 -15 -5 -26 -8 -26 -6 0 3 -25 -4 -55 -15 -30 -10 -61 -19 -70 -19 -8 0
-15 -5 -15 -11 0 -5 -4 -7 -10 -4 -5 3 -40 -3 -77 -14 -37 -11 -77 -21 -88
-23 -11 -2 -22 -6 -25 -10 -3 -4 -19 -9 -35 -12 -17 -2 -30 -5 -30 -6 0 -1 -7
-3 -15 -5 -8 -2 -80 -22 -160 -45 -80 -23 -149 -43 -155 -44 -5 -1 -37 -10
-70 -20 -33 -10 -67 -20 -75 -22 -49 -12 -159 -44 -182 -53 -16 -6 -28 -8 -28
-5 0 4 -6 1 -13 -5 -8 -6 -17 -8 -20 -5 -3 3 -12 2 -19 -2 -7 -5 -17 -9 -23
-10 -5 -1 -106 -29 -223 -63 -118 -33 -222 -61 -232 -61 -10 0 -21 -4 -24 -8
-4 -7 -47 -19 -126 -37 -3 -1 -32 -9 -65 -19 -33 -10 -73 -22 -90 -27 -16 -4
-86 -24 -155 -44 -69 -20 -136 -38 -149 -41 -14 -3 -29 -8 -35 -11 -6 -4 -19
-8 -31 -9 -11 -2 -60 -15 -110 -29 -49 -15 -97 -28 -105 -30 -8 -2 -15 -4 -15
-5 0 -2 -36 -10 -57 -12 -10 -1 -18 -5 -18 -9 0 -4 -12 -9 -27 -12 -44 -8
-171 -42 -203 -54 -8 -3 -22 -7 -30 -8 -8 -2 -96 -26 -195 -55 -99 -28 -188
-53 -198 -55 -9 -2 -21 -6 -25 -9 -5 -3 -19 -7 -33 -10 -13 -2 -62 -16 -109
-29 -166 -48 -454 -129 -469 -132 -9 -2 -27 -8 -41 -13 -14 -5 -29 -11 -35
-12 -5 -1 -14 -4 -20 -5 -57 -16 -110 -28 -110 -26 0 1 -13 -3 -30 -9 -30 -12
-221 -67 -253 -74 -9 -1 -30 -8 -45 -14 -16 -7 -33 -12 -39 -12 -7 0 -25 -4
-42 -10 -17 -5 -56 -16 -86 -25 -30 -8 -134 -38 -230 -66 -96 -28 -184 -52
-195 -54 -11 -2 -20 -4 -20 -5 0 -1 -7 -3 -15 -5 -8 -2 -96 -27 -195 -55 -99
-29 -190 -54 -202 -56 -12 -2 -35 -9 -50 -15 -16 -6 -35 -12 -43 -14 -24 -5
-108 -28 -410 -115 -157 -44 -293 -83 -304 -85 -10 -2 -42 -11 -70 -19 -28 -8
-54 -15 -58 -16 -4 0 -26 -7 -48 -15 -22 -8 -44 -15 -48 -16 -13 -3 -27 -7
-72 -20 -50 -14 -57 -16 -85 -22 -11 -2 -27 -7 -35 -10 -8 -3 -67 -20 -130
-37 -113 -30 -195 -54 -315 -90 -33 -11 -73 -21 -88 -24 -14 -2 -30 -7 -35
-10 -5 -3 -20 -7 -33 -9 -14 -3 -56 -15 -94 -27 -39 -12 -79 -24 -90 -26 -11
-3 -27 -7 -35 -9 -8 -2 -15 -4 -15 -5 0 -1 -7 -3 -16 -5 -9 -1 -59 -15 -110
-30 -52 -15 -101 -29 -109 -30 -8 -2 -87 -24 -175 -50 -88 -25 -185 -52 -215
-61 -30 -9 -66 -19 -80 -24 -26 -9 -78 -21 -82 -19 -2 0 -16 -5 -33 -11 -16
-7 -38 -14 -47 -16 -37 -8 -150 -40 -298 -84 -58 -16 -118 -33 -134 -36 -16
-2 -37 -9 -47 -15 -11 -5 -19 -7 -19 -4 0 3 -8 1 -18 -4 -11 -6 -30 -12 -43
-15 -13 -3 -94 -25 -179 -50 -85 -24 -162 -46 -170 -48 -12 -3 -14 263 -15
2076 l0 2078 25 10 c14 5 36 11 50 13 14 1 25 4 25 5 0 1 18 4 85 14 19 2 35
5 35 6 0 1 9 3 20 5 11 2 36 7 55 11 19 4 42 8 50 10 8 2 31 6 50 10 19 4 44
8 55 10 11 1 65 11 120 23 55 11 116 23 135 26 19 3 42 8 50 10 8 2 28 6 44 9
16 3 53 10 83 16 29 6 65 13 80 15 16 2 28 4 28 5 0 1 9 3 20 5 26 5 86 17
105 22 8 2 29 5 45 7 17 3 55 9 85 15 30 7 69 14 85 17 17 3 49 9 73 15 23 5
59 12 80 15 20 3 45 7 54 10 21 6 55 13 93 19 17 2 40 6 53 10 46 11 120 25
167 31 11 1 20 3 20 4 0 2 19 6 65 14 19 3 105 19 190 36 85 18 166 34 180 36
14 3 58 11 97 19 40 9 88 17 105 19 18 3 33 6 33 7 0 1 9 3 20 4 20 3 57 10
105 20 14 3 40 8 59 11 18 3 42 8 52 10 11 2 29 6 42 9 12 3 36 7 52 10 17 2
47 9 67 14 20 5 39 6 42 4 2 -3 11 -1 18 3 7 5 18 9 23 10 6 1 27 4 47 8 21 3
58 10 83 16 25 6 62 13 81 16 20 3 46 8 58 10 11 3 35 7 51 10 17 2 53 10 80
16 28 7 57 13 65 13 22 2 89 15 135 25 22 6 54 12 70 14 17 2 30 5 30 6 0 1
14 3 30 5 17 2 41 7 55 11 24 6 38 8 95 18 14 3 33 7 43 10 9 3 33 7 52 10 19
3 46 8 60 11 50 11 76 15 110 21 19 3 64 12 100 19 35 7 68 11 72 9 4 -3 8 -1
8 3 0 5 8 9 18 9 25 1 105 15 113 20 3 2 21 6 40 9 19 2 48 8 64 11 104 21
283 56 300 59 116 21 160 31 175 40 9 6 11 4 5 -5 -5 -9 -4 -11 4 -6 13 8 57
18 84 20 9 0 17 3 17 6 0 3 8 6 18 6 9 1 33 4 52 7 19 4 49 9 65 12 31 6 112
21 155 31 50 10 236 46 255 49 11 2 54 10 95 18 41 9 91 19 110 22 19 3 42 8
50 10 8 2 31 7 50 10 19 3 42 8 50 10 8 2 31 6 50 9 19 3 114 21 210 40 175
35 209 42 265 52 17 2 73 13 125 23 52 11 98 17 103 14 4 -2 7 0 7 4 0 5 12
10 28 11 15 1 36 4 47 6 20 5 358 71 405 80 14 3 46 9 73 14 26 5 47 8 47 5 0
-2 8 0 18 6 9 5 37 12 62 15 25 3 59 9 75 12 17 4 39 8 50 9 11 2 20 4 20 5 0
2 9 4 20 6 11 2 31 5 45 8 14 2 43 7 65 11 22 3 60 11 85 17 25 5 59 12 75 15
17 2 82 15 145 29 63 13 131 26 150 28 19 3 35 6 35 7 0 1 9 3 20 4 30 4 88
15 105 20 17 5 60 13 110 21 19 3 44 8 55 11 11 3 31 7 45 9 14 1 36 5 50 8
67 15 108 23 155 31 17 3 37 8 45 10 8 2 31 6 50 9 19 3 46 8 60 11 48 11 185
37 210 40 14 2 25 4 25 5 0 3 78 18 135 26 25 3 48 8 51 10 4 2 24 6 44 10 21
3 47 8 59 10 21 5 105 21 141 27 11 2 31 7 45 10 26 6 258 51 320 62 85 14
125 22 125 25 0 1 11 3 25 5 43 6 84 13 105 18 22 6 324 64 369 71 16 3 31 7
34 10 2 3 8 3 12 1 5 -3 8 -727 8 -1609z"/>
</g>
</svg>
